HIERARCHY
ROOT Hips
{
	OFFSET	0.00	0.00	0.00
	CHANNELS 6 Xposition Yposition Zposition Zrotation Xrotation Yrotation
	JOINT LeftUpLeg
	{
		OFFSET	 0.126116	-0.014019	-0.065224
		CHANNELS 3 Zrotation Xrotation Yrotation
		JOINT LeftLeg
		{
			OFFSET	 0.000000	 0.000000	 0.569914
			CHANNELS 3 Zrotation Xrotation Yrotation
			JOINT LeftFoot
			{
				OFFSET	 0.000000	 0.000000	 0.544423
				CHANNELS 3 Zrotation Xrotation Yrotation
				JOINT LeftToeBase
				{
					OFFSET	 0.000000	 0.000000	 0.207117
					CHANNELS 3 Zrotation Xrotation Yrotation
					End Site
					{
						OFFSET	 0.000000	 0.000000	 0.207117
					}
				}
			}
		}
	}
	JOINT RightUpLeg
	{
		OFFSET	-0.124023	-0.008373	-0.065224
		CHANNELS 3 Zrotation Xrotation Yrotation
		JOINT RightLeg
		{
			OFFSET	 0.000000	 0.000000	 0.570047
			CHANNELS 3 Zrotation Xrotation Yrotation
			JOINT RightFoot
			{
				OFFSET	 0.000000	 0.000000	 0.544354
				CHANNELS 3 Zrotation Xrotation Yrotation
				JOINT RightToeBase
				{
					OFFSET	 0.000000	 0.000000	 0.207540
					CHANNELS 3 Zrotation Xrotation Yrotation
					End Site
					{
						OFFSET	 0.000000	 0.000000	 0.207540
					}
				}
			}
		}
	}
	JOINT Spine
	{
		OFFSET	 0.000184	-0.007763	 0.117403
		CHANNELS 3 Zrotation Xrotation Yrotation
		JOINT Spine1
		{
			OFFSET	 0.000000	 0.000000	 0.137269
			CHANNELS 3 Zrotation Xrotation Yrotation
			JOINT Spine2
			{
				OFFSET	 0.000000	 0.000000	 0.156879
				CHANNELS 3 Zrotation Xrotation Yrotation
				JOINT LeftShoulder
				{
					OFFSET	 0.080501	-0.002496	 0.160144
					CHANNELS 3 Zrotation Xrotation Yrotation
					JOINT LeftArm
					{
						OFFSET	 0.000000	 0.000000	 0.164363
						CHANNELS 3 Zrotation Xrotation Yrotation
						JOINT LeftForeArm
						{
							OFFSET	 0.000000	 0.000000	 0.364576
							CHANNELS 3 Zrotation Xrotation Yrotation
							JOINT LeftHand
							{
								OFFSET	 0.000000	 0.000000	 0.360812
								CHANNELS 3 Zrotation Xrotation Yrotation
								JOINT LeftHandIndex1
								{
									OFFSET	 0.000000	 0.000000	 0.086006
									CHANNELS 3 Zrotation Xrotation Yrotation
									JOINT LeftHandIndex2
									{
										OFFSET	 0.000000	 0.000000	 0.047236
										CHANNELS 3 Zrotation Xrotation Yrotation
										JOINT LeftHandIndex3
										{
											OFFSET	-0.004284	-0.000551	 0.038166
											CHANNELS 3 Zrotation Xrotation Yrotation
											End Site
											{
												OFFSET	-0.004284	-0.000551	 0.038166
											}
										}
									}
								}
							}
						}
					}
				}
				JOINT Neck
				{
					OFFSET	 0.000000	 0.000000	 0.176489
					CHANNELS 3 Zrotation Xrotation Yrotation
					JOINT Head
					{
						OFFSET	 0.000000	-0.001747	 0.077940
						CHANNELS 3 Zrotation Xrotation Yrotation
						End Site
						{
							OFFSET	 0.000000	-0.001747	 0.077940
						}
					}
				}
				JOINT RightShoulder
				{
					OFFSET	-0.080363	 0.000306	 0.159706
					CHANNELS 3 Zrotation Xrotation Yrotation
					JOINT RightArm
					{
						OFFSET	 0.000000	 0.000000	 0.164196
						CHANNELS 3 Zrotation Xrotation Yrotation
						JOINT RightForeArm
						{
							OFFSET	 0.000000	 0.000000	 0.365611
							CHANNELS 3 Zrotation Xrotation Yrotation
							JOINT RightHand
							{
								OFFSET	 0.000000	 0.000000	 0.360648
								CHANNELS 3 Zrotation Xrotation Yrotation
								JOINT RightHandIndex1
								{
									OFFSET	 0.000000	 0.000000	 0.069977
									CHANNELS 3 Zrotation Xrotation Yrotation
									JOINT RightHandIndex2
									{
										OFFSET	 0.000000	 0.000000	 0.052305
										CHANNELS 3 Zrotation Xrotation Yrotation
										JOINT RightHandIndex3
										{
											OFFSET	 0.009002	-0.000782	 0.042196
											CHANNELS 3 Zrotation Xrotation Yrotation
											End Site
											{
												OFFSET	 0.009002	-0.000782	 0.042196
											}
										}
									}
								}
							}
						}
					}
				}
			}
		}
	}
}
MOTION
Frames:    12
Frame Time: 0.03333334
-0.000532	 0.016901	 1.311080	 0.002879	 0.002246	-0.153103	-4.383862	-1.526132	 178.999500	 1.476361	-11.705840	-0.682964	-5.245211	 63.723080	-0.854074	-2.385833	 28.452760	 0.000004	 4.271913	-2.235238	-178.724000	-1.450118	-12.729470	 0.730930	 5.162434	 64.084340	 0.781911	 2.384658	 28.388730	 0.000004	-10.845150	 2.765641	-0.075700	 1.792723	 3.568195	 0.715940	-5.393068	-4.417826	-1.172940	-91.776180	 78.527450	 180.000000	 57.377890	 40.408540	-52.354190	-20.759400	 3.387401	-12.854520	-36.404710	 8.465393	-3.111289	-2.635965	 4.993658	 6.788941	-5.165319	 0.784187	 3.516649	-5.225038	 0.466231	 0.424329	-0.000002	-3.783157	-0.089647	-5.241190	 4.825273	 0.220968	 89.782040	 78.203890	-180.000000	 3.257088	 13.211940	 102.583200	-21.784320	 2.642681	 12.356000	 12.524630	 6.362431	-7.184490	 6.112037	 4.509576	-0.364401	 4.968462	 1.518543	-9.347576	 5.168945	 0.703820	 2.021906
-0.000505	 0.016753	 1.313464	 0.003618	 0.004868	-0.128410	-4.184640	-1.544358	 178.961200	 1.476062	-11.730320	-0.684433	-5.243504	 63.345530	-0.840855	-2.385833	 28.452760	 0.000004	 4.069343	-2.218411	-178.730100	-1.450856	-12.672770	 0.727567	 5.150688	 63.666230	 0.779683	 2.384658	 28.388730	 0.000004	-10.487620	 2.759097	-0.052033	 1.524564	 3.568203	 0.614801	-4.585048	-4.455335	-1.001548	-91.776250	 78.527470	-180.000000	 57.469710	 40.392710	-52.605490	-21.006680	 3.225049	-12.676480	-35.424560	 6.707560	-3.470376	-2.635965	 4.993658	 6.788941	-5.165319	 0.784187	 3.516649	-5.225038	 0.466231	 0.424329	-0.000002	-3.783157	-0.089647	-4.452590	 4.908983	 0.190942	 89.782140	 78.203890	 180.000000	 3.195989	 13.449040	 102.571000	-21.724720	 2.743680	 12.567780	 11.284830	 4.695310	-6.880320	 6.112037	 4.509576	-0.364401	 4.968462	 1.518543	-9.347576	 5.168945	 0.703820	 2.021906
-0.000420	 0.017228	 1.315390	 0.004171	 0.007298	-0.096356	-4.021759	-1.578909	 178.919300	 1.475507	-11.775910	-0.687170	-5.243427	 63.033260	-0.827561	-2.385833	 28.452760	 0.000004	 3.903322	-2.227250	-178.742900	-1.451757	-12.603050	 0.723430	 5.137507	 63.270450	 0.779797	 2.384658	 28.388730	 0.000004	-9.982658	 2.751221	-0.019314	 1.163844	 3.571398	 0.477494	-3.497618	-4.500762	-0.769282	-91.776170	 78.527450	 180.000000	 57.472980	 40.296990	-52.199500	-21.200490	 3.859416	-13.650120	-34.242000	 3.396554	-3.941042	-2.635965	 4.993658	 6.788941	-5.165319	 0.784187	 3.516649	-5.225038	 0.466231	 0.424329	-0.000002	-3.783157	-0.089647	-3.393057	 4.998714	 0.148134	 89.782150	 78.203900	 180.000000	 3.166899	 13.794670	 102.524000	-21.670150	 2.853823	 12.789800	 9.066373	 1.778126	-6.474226	 6.112037	 4.509576	-0.364401	 4.968462	 1.518543	-9.347576	 5.168945	 0.703820	 2.021906
-0.000309	 0.019430	 1.315698	 0.004169	 0.008551	-0.064861	-4.022053	-1.635439	 178.890100	 1.474735	-11.838470	-0.690924	-5.248088	 63.005610	-0.820113	-2.385833	 28.452760	 0.000004	 3.902475	-2.315458	-178.761100	-1.452619	-12.536510	 0.719485	 5.127293	 63.086680	 0.784968	 2.384658	 28.388730	 0.000004	-9.389942	 2.746988	-0.018061	 0.793639	 3.572609	 0.397966	-2.389450	-4.534564	-0.559129	-91.776140	 78.527450	 180.000000	 57.477010	 40.210360	-51.622150	-21.306330	 4.785422	-15.018940	-33.122460	-0.914252	-4.336961	-2.635965	 4.993658	 6.788941	-5.165319	 0.784187	 3.516649	-5.225038	 0.466231	 0.424329	-0.000002	-3.783157	-0.089647	-2.312881	 5.064764	 0.102292	 89.782130	 78.203850	 180.000000	 2.638288	 14.367650	 102.419200	-21.286290	 2.948666	 12.974820	 6.104151	-2.005206	-6.106372	 6.112037	 4.509576	-0.364401	 4.968462	 1.518543	-9.347576	 5.168945	 0.703820	 2.021906
-0.000204	 0.022021	 1.316618	 0.001406	 0.010708	-0.015943	-4.020222	-1.709528	 178.845300	 1.473595	-11.930440	-0.696451	-5.255197	 62.984770	-0.809698	-2.385833	 28.452760	 0.000004	 3.903406	-2.404052	-178.792100	-1.453961	-12.431670	 0.713273	 5.114256	 62.861800	 0.792143	 2.384658	 28.388730	 0.000004	-8.481783	 2.740472	 0.039778	 0.336703	 3.574392	 0.165955	-0.998505	-4.563079	-0.233092	-91.776190	 78.527490	-180.000000	 57.623050	 40.197690	-51.437890	-21.420670	 5.484919	-16.050140	-31.767170	-7.465488	-4.610985	-2.635965	 4.993658	 6.788941	-5.165319	 0.784187	 3.516649	-5.225038	 0.466231	 0.424329	-0.000002	-3.783157	-0.089647	-0.963615	 5.112007	 0.043003	 89.782170	 78.203900	 179.999900	-0.803742	 15.316090	 101.966800	-19.928540	 3.052245	 13.158020	 2.883845	-8.386327	-5.880604	 6.112037	 4.509576	-0.364401	 4.968462	 1.518543	-9.347576	 5.168945	 0.703820	 2.021906
-0.000116	 0.024673	 1.317905	-0.000929	 0.011240	 0.028622	-4.018832	-1.787953	 178.806100	 1.472306	-12.033850	-0.702668	-5.262534	 62.969470	-0.799108	-2.385833	 28.452760	 0.000004	 3.903823	-2.492935	-178.819800	-1.455247	-12.330090	 0.707262	 5.100305	 62.637730	 0.800365	 2.384658	 28.388730	 0.000004	-7.256782	 2.737299	 0.103329	-0.142559	 3.576087	-0.068417	 0.457442	-4.571060	 0.105030	-91.776150	 78.527450	 180.000000	 57.862070	 40.239760	-51.478910	-21.486130	 6.089033	-16.929950	-30.271710	-15.533550	-4.483593	-2.635965	 4.993658	 6.788941	-5.165319	 0.784187	 3.516649	-5.225038	 0.466231	 0.424329	-0.000002	-3.783157	-0.089647	 0.448050	 5.119564	-0.020045	 89.782070	 78.203890	-180.000000	-6.896546	 17.025090	 100.857200	-17.577330	 3.142370	 13.294170	 0.896536	-17.006090	-6.240516	 6.112037	 4.509576	-0.364401	 4.968462	 1.518543	-9.347576	 5.168945	 0.703820	 2.021906
-0.000003	 0.026938	 1.318934	-0.002924	 0.008220	 0.058811	-4.017570	-1.865417	 178.783200	 1.470848	-12.149710	-0.709640	-5.270525	 62.970030	-0.788218	-2.385833	 28.452760	 0.000004	 3.904485	-2.577576	-178.837800	-1.456049	-12.266770	 0.703515	 5.089595	 62.456580	 0.806102	 2.384658	 28.388730	 0.000004	-5.899302	 2.737061	 0.161489	-0.551941	 3.581791	-0.259531	 1.699390	-4.562378	 0.389366	-91.776170	 78.527470	 180.000000	 58.131560	 40.306880	-51.624710	-21.479800	 6.590851	-17.652690	-28.758060	-23.176560	-3.861417	-2.635965	 4.993658	 6.788941	-5.165319	 0.784187	 3.516649	-5.225038	 0.466231	 0.424329	-0.000002	-3.783157	-0.089647	 1.652742	 5.092242	-0.073512	 89.782160	 78.203890	 179.999900	-13.195580	 19.102700	 98.740610	-15.172600	 3.197026	 13.362450	-0.194854	-25.420930	-7.270978	 6.112037	 4.509576	-0.364401	 4.968462	 1.518543	-9.347576	 5.168945	 0.703820	 2.021906
 0.000094	 0.029580	 1.319843	-0.003186	 0.007378	 0.091674	-4.017905	-1.937085	 178.755000	 1.469698	-12.239960	-0.715074	-5.276278	 62.947750	-0.779295	-2.385833	 28.452760	 0.000004	 3.902931	-2.669887	-178.855800	-1.457176	-12.176700	 0.698191	 5.074834	 62.238400	 0.815318	 2.384658	 28.388730	 0.000004	-3.959166	 2.738456	 0.177969	-0.998627	 3.579899	-0.374939	 3.038472	-4.533883	 0.653239	-91.776220	 78.527400	-180.000000	 58.554950	 40.442180	-52.052080	-21.402260	 7.015600	-18.260760	-26.562330	-31.710250	-2.372711	-2.635965	 4.993658	 6.788941	-5.165319	 0.784187	 3.516649	-5.225038	 0.466231	 0.424329	-0.000002	-3.783157	-0.089647	 2.956110	 5.027534	-0.129820	 89.782170	 78.203890	 179.999900	-21.711440	 22.843430	 95.404650	-12.278920	 3.220541	 13.358300	-1.280662	-34.918860	-9.389971	 6.112037	 4.509576	-0.364401	 4.968462	 1.518543	-9.347576	 5.168945	 0.703820	 2.021906
 0.000164	 0.031837	 1.320287	-0.002491	 0.005948	 0.112680	-4.018882	-1.994190	 178.737300	 1.468811	-12.309120	-0.719243	-5.280674	 62.924790	-0.772211	-2.385833	 28.452760	 0.000004	 3.900934	-2.753498	-178.865500	-1.457967	-12.112940	 0.694420	 5.062872	 62.059300	 0.822538	 2.384658	 28.388730	 0.000004	-1.999475	 2.740867	 0.216880	-1.335484	 3.578578	-0.501382	 4.052036	-4.501008	 0.870046	-91.776180	 78.527470	 180.000000	 58.981240	 40.586820	-52.532350	-21.250310	 7.310783	-18.682140	-24.211810	-37.566190	-0.465147	-2.635965	 4.993658	 6.788941	-5.165319	 0.784187	 3.516649	-5.225038	 0.466231	 0.424329	-0.000002	-3.783157	-0.089647	 3.942625	 4.954066	-0.170636	 89.782160	 78.203870	 179.999900	-28.645560	 26.020880	 88.838910	-10.108690	 3.745871	 18.737860	-2.675649	-41.381150	-11.634470	 6.112037	 4.509576	-0.364401	 4.968462	 1.518543	-9.347576	 5.168945	 0.703820	 2.021906
 0.000261	 0.034405	 1.321165	-0.001982	 0.004230	 0.132297	-4.019433	-2.056056	 178.721000	 1.467924	-12.378180	-0.723406	-5.284079	 62.890770	-0.765797	-2.385833	 28.452760	 0.000004	 3.898941	-2.852762	-178.872000	-1.458900	-12.037500	 0.689966	 5.048001	 61.846550	 0.831840	 2.384658	 28.388730	 0.000004	 0.647299	 2.743445	 0.256911	-1.669639	 3.578956	-0.626700	 5.057971	-4.461499	 1.084181	-91.776150	 78.527470	 180.000000	 59.555030	 40.785260	-53.231650	-20.951450	 7.542077	-19.012780	-21.084850	-41.238350	 2.048859	-2.635965	 4.993658	 6.788941	-5.165319	 0.784187	 3.516649	-5.225038	 0.466231	 0.424329	-0.000002	-3.783157	-0.089647	 4.923242	 4.859347	-0.209041	 89.782040	 78.203850	-180.000000	-37.385930	 29.604960	 79.721760	-7.284728	 4.867445	 24.386620	-3.803572	-45.674760	-13.564320	 6.112037	 4.509576	-0.364401	 4.968462	 1.518543	-9.347576	 5.168945	 0.703820	 2.021906
 0.000316	 0.036606	 1.321814	-0.002192	 0.003426	 0.147971	-4.019174	-2.103915	 178.707100	 1.467317	-12.425090	-0.726234	-5.286148	 62.855210	-0.761176	-2.385833	 28.452760	 0.000004	 3.897849	-2.937435	-178.876200	-1.459728	-11.970080	 0.685987	 5.035309	 61.662330	 0.839702	 2.384658	 28.388730	 0.000004	 3.112286	 2.744254	 0.280837	-1.890901	 3.582606	-0.711295	 5.725528	-4.434579	 1.226599	-91.776140	 78.527450	 180.000000	 60.098140	 40.975610	-53.983200	-20.592400	 7.539273	-19.003860	-18.755160	-40.433240	 3.473518	-2.635965	 4.993658	 6.788941	-5.165319	 0.784187	 3.516649	-5.225038	 0.466231	 0.424329	-0.000002	-3.783157	-0.089647	 5.574825	 4.783162	-0.233030	 89.782110	 78.203890	 180.000000	-44.776890	 32.722620	 71.814230	-4.574902	 5.952709	 27.078010	-2.844790	-45.444600	-13.082450	 6.112037	 4.509576	-0.364401	 4.968462	 1.518543	-9.347576	 5.168945	 0.703820	 2.021906
 0.000357	 0.039211	 1.322206	-0.002884	 0.003227	 0.163597	-4.018267	-2.152505	 178.692000	 1.466816	-12.463600	-0.728559	-5.287577	 62.806140	-0.756802	-2.385833	 28.452760	 0.000004	 3.886875	-3.036835	-178.877800	-1.460659	-11.893740	 0.681485	 5.009021	 61.450500	 0.850363	 2.384658	 28.388730	 0.000004	 5.769969	 2.742939	 0.296411	-2.065732	 3.592235	-0.779570	 6.254478	-4.418973	 1.340362	-91.776210	 78.527470	-180.000000	 60.659760	 41.155430	-54.784870	-20.078010	 7.387214	-18.767670	-17.259150	-35.062780	 3.339823	-2.635965	 4.993658	 6.788941	-5.165319	 0.784187	 3.516649	-5.225038	 0.466231	 0.424329	-0.000002	-3.783157	-0.089647	 6.091324	 4.712452	-0.250889	 89.782230	 78.203920	 179.999900	-52.326040	 36.203370	 65.144010	-1.153708	 6.634668	 26.468780	 0.502915	-40.658240	-9.700456	 6.112037	 4.509576	-0.364401	 4.968462	 1.518543	-9.347576	 5.168945	 0.703820	 2.021906
